<svg width="168" height="28" viewBox="0 0 168 28" fill="none" xmlns="http://www.w3.org/2000/svg">
<path d="M19.152 16.488L24.984 17.64C23.868 23.688 19.008 27.216 12.816 27.216C5.65199 27.216 -9.76026e-06 21.708 -9.76026e-06 14.616C-9.76026e-06 7.56 5.65199 2.016 12.816 2.016C18.756 2.016 23.796 5.544 24.948 11.268L19.116 12.636C18.36 9.144 15.912 7.452 12.816 7.452C8.99999 7.452 5.93999 10.512 5.93999 14.616C5.93999 18.72 8.99999 21.816 12.816 21.816C15.876 21.816 18.324 20.088 19.152 16.488ZM28.3202 2.556H37.8602C45.8162 2.556 51.0722 7.452 51.0722 14.616C51.0722 21.78 45.8162 26.676 37.8602 26.676H28.3202V2.556ZM34.2602 21.528H37.6442C42.1442 21.528 45.0962 18.792 45.0962 14.616C45.0962 10.44 42.1442 7.704 37.6442 7.704H34.2602V21.528ZM63.8741 2.016C69.1301 2.016 72.9461 4.608 73.8461 9L68.0141 10.188C67.5821 7.92 65.7101 6.804 63.8021 6.804C61.8221 6.804 60.5621 7.884 60.5621 9.252C60.5621 10.224 60.9941 10.944 62.5061 11.268L67.5101 12.384C71.6861 13.32 74.1341 15.588 74.1341 19.404C74.1341 24.552 69.5621 27.216 64.1981 27.216C58.7621 27.216 54.2981 24.624 53.6501 19.908L59.7701 18.72C60.3821 21.204 62.1101 22.284 64.5221 22.284C66.7541 22.284 68.0861 21.276 68.0861 19.8C68.0861 18.72 67.5821 18.036 65.8541 17.676L60.8141 16.596C57.3581 15.804 54.3341 14.004 54.3341 9.612C54.3341 4.932 58.2221 2.016 63.8741 2.016ZM89.4231 21.348L90.7551 25.884C89.3511 26.64 87.8751 27.216 85.8231 27.216C81.3231 27.216 78.6231 24.768 78.6231 20.016V13.176H75.3471V8.604H78.6231V3.276H84.3831V8.604H89.7111V13.176H84.3831V19.44C84.3831 21.312 85.2831 22.068 86.7951 22.068C87.5871 22.068 88.6671 21.78 89.4231 21.348ZM110.658 8.604V26.676H104.898V24.948C103.53 26.388 101.622 27.216 99.3538 27.216C95.1418 27.216 92.3338 24.228 92.3338 19.692V8.604H98.0578V18.468C98.0578 20.592 99.3178 22.032 101.154 22.032C103.422 22.032 104.898 20.484 104.898 16.992V8.604H110.658ZM133.848 0.756001V26.676H128.088V25.236C126.684 26.496 124.812 27.216 122.472 27.216C117.684 27.216 113.652 23.364 113.652 17.64C113.652 11.952 117.684 8.064 122.472 8.064C124.812 8.064 126.684 8.784 128.088 10.044V0.756001H133.848ZM123.66 22.32C126 22.32 128.088 20.448 128.088 17.64C128.088 14.868 126 12.96 123.66 12.96C121.14 12.96 119.304 14.868 119.304 17.64C119.304 20.448 121.14 22.32 123.66 22.32ZM141.176 4.76837e-07C143.12 4.76837e-07 144.524 1.512 144.524 3.276C144.524 5.112 143.12 6.48 141.176 6.48C139.232 6.48 137.864 5.112 137.864 3.276C137.864 1.512 139.232 4.76837e-07 141.176 4.76837e-07ZM144.056 26.676H138.296V8.604H144.056V26.676ZM157.339 8.136C162.703 8.136 167.239 11.952 167.239 17.64C167.239 23.364 162.703 27.18 157.339 27.18C151.867 27.18 147.331 23.364 147.331 17.64C147.331 11.952 151.867 8.136 157.339 8.136ZM157.339 22.32C159.571 22.32 161.695 20.484 161.695 17.64C161.695 14.832 159.571 12.96 157.339 12.96C154.999 12.96 152.875 14.832 152.875 17.64C152.875 20.484 154.999 22.32 157.339 22.32Z" fill="white"/>
</svg>
